<svg width="900" height="620" viewBox="0 0 900 620" fill="none" xmlns="http://www.w3.org/2000/svg">
  <rect width="900" height="620" rx="48" fill="url(#bg)"/>
  <rect x="48" y="48" width="804" height="524" rx="36" fill="#FFFFFF" fill-opacity="0.86"/>
  <rect x="96" y="104" width="268" height="40" rx="20" fill="#EEF2F8"/>
  <rect x="96" y="176" width="300" height="24" rx="12" fill="#DCE7F6"/>
  <rect x="96" y="218" width="244" height="18" rx="9" fill="#E8EEF8"/>
  <rect x="96" y="260" width="214" height="18" rx="9" fill="#E8EEF8"/>
  <rect x="96" y="330" width="284" height="144" rx="28" fill="#F6FBFF"/>
  <rect x="128" y="368" width="220" height="18" rx="9" fill="#D4E5FB"/>
  <rect x="128" y="402" width="184" height="18" rx="9" fill="#E3EEFF"/>
  <rect x="128" y="436" width="142" height="18" rx="9" fill="#E3EEFF"/>
  <rect x="438" y="102" width="324" height="368" rx="36" fill="url(#panel)"/>
  <circle cx="600" cy="204" r="88" fill="#102033"/>
  <circle cx="600" cy="176" r="40" fill="#F6C89A"/>
  <path d="M530 284C530 239.817 565.817 204 610 204H590C634.183 204 670 239.817 670 284V322H530V284Z" fill="#6FAE8C"/>
  <rect x="468" y="366" width="264" height="18" rx="9" fill="#DCE7F6"/>
  <rect x="468" y="398" width="220" height="18" rx="9" fill="#E7EEF8"/>
  <rect x="468" y="430" width="186" height="18" rx="9" fill="#E7EEF8"/>
  <defs>
    <linearGradient id="bg" x1="64" y1="44" x2="832" y2="572" gradientUnits="userSpaceOnUse">
      <stop stop-color="#F8FBFF"/>
      <stop offset="1" stop-color="#F7F0E6"/>
    </linearGradient>
    <linearGradient id="panel" x1="600" y1="102" x2="600" y2="470" gradientUnits="userSpaceOnUse">
      <stop stop-color="#EEF6FF"/>
      <stop offset="1" stop-color="#F9FBFF"/>
    </linearGradient>
  </defs>
</svg>
