<svg width="64" height="64" viewBox="0 0 64 64" fill="none" xmlns="http://www.w3.org/2000/svg">
  <rect width="64" height="64" rx="18" fill="#0F172A"/>
  <path d="M18 20H31.5C39.5081 20 46 26.4919 46 34.5C46 42.5081 39.5081 49 31.5 49H18V20Z" fill="url(#paint0_linear_401_1)"/>
  <path d="M24 27H31C35.4183 27 39 30.5817 39 35C39 39.4183 35.4183 43 31 43H24V27Z" fill="white" fill-opacity="0.92"/>
  <path d="M33 20H42.5C47.1944 20 51 23.8056 51 28.5C51 33.1944 47.1944 37 42.5 37H33V20Z" fill="#E2E8F0"/>
  <defs>
    <linearGradient id="paint0_linear_401_1" x1="18" y1="20" x2="46" y2="49" gradientUnits="userSpaceOnUse">
      <stop stop-color="#38BDF8"/>
      <stop offset="1" stop-color="#34D399"/>
    </linearGradient>
  </defs>
</svg>
